<mxfile host="app.diagrams.net" agent="Mozilla/5.0 (Windows NT 10.0; Win64; x64) AppleWebKit/537.36 (KHTML, like Gecko) Chrome/131.0.0.0 Safari/537.36 Edg/131.0.0.0" version="26.0.4">
  <diagram name="PÃ¡gina-1" id="ByPnyzdSTrtcEhe8VtN3">
    <mxGraphModel dx="1744" dy="2107" grid="1" gridSize="10" guides="1" tooltips="1" connect="1" arrows="1" fold="1" page="1" pageScale="1" pageWidth="827" pageHeight="1169" background="#ffffff" math="0" shadow="0">
      <root>
        <mxCell id="0" />
        <mxCell id="1" parent="0" />
        <mxCell id="RkF54FqupohJYXKTIumb-1" value="Home router" style="verticalLabelPosition=bottom;sketch=0;aspect=fixed;html=1;verticalAlign=top;strokeColor=none;align=center;outlineConnect=0;shape=mxgraph.citrix.router;" vertex="1" parent="1">
          <mxGeometry x="380" y="120" width="55" height="36.5" as="geometry" />
        </mxCell>
        <mxCell id="RkF54FqupohJYXKTIumb-2" value="Raspberry Pi&lt;div&gt;(Running Tshark&lt;span style=&quot;background-color: transparent; color: light-dark(rgb(0, 0, 0), rgb(255, 255, 255));&quot;&gt;)&lt;/span&gt;&lt;/div&gt;" style="shape=mxgraph.cisco.misc.pxf;html=1;pointerEvents=1;dashed=0;fillColor=#036897;strokeColor=#ffffff;strokeWidth=2;verticalLabelPosition=bottom;verticalAlign=top;align=center;outlineConnect=0;direction=south;" vertex="1" parent="1">
          <mxGeometry x="520.65" y="118.25" width="60" height="40" as="geometry" />
        </mxCell>
        <mxCell id="RkF54FqupohJYXKTIumb-3" value="" style="verticalLabelPosition=bottom;html=1;verticalAlign=top;align=center;strokeColor=none;fillColor=#00BEF2;shape=mxgraph.azure.mobile;pointerEvents=1;" vertex="1" parent="1">
          <mxGeometry x="290" y="300" width="35" height="50" as="geometry" />
        </mxCell>
        <mxCell id="RkF54FqupohJYXKTIumb-4" style="edgeStyle=orthogonalEdgeStyle;rounded=0;orthogonalLoop=1;jettySize=auto;html=1;endArrow=classic;endFill=1;curved=1;startArrow=classic;startFill=1;" edge="1" parent="1" source="RkF54FqupohJYXKTIumb-5" target="RkF54FqupohJYXKTIumb-1">
          <mxGeometry relative="1" as="geometry" />
        </mxCell>
        <mxCell id="RkF54FqupohJYXKTIumb-5" value="" style="image;points=[];aspect=fixed;html=1;align=center;shadow=0;dashed=0;image=img/lib/allied_telesis/computer_and_terminals/Laptop.svg;" vertex="1" parent="1">
          <mxGeometry x="190" y="227.4" width="51.86" height="52.6" as="geometry" />
        </mxCell>
        <mxCell id="RkF54FqupohJYXKTIumb-6" style="edgeStyle=orthogonalEdgeStyle;rounded=0;orthogonalLoop=1;jettySize=auto;html=1;endArrow=classic;endFill=1;curved=1;startArrow=classic;startFill=1;exitX=1;exitY=0.5;exitDx=0;exitDy=0;exitPerimeter=0;" edge="1" parent="1" source="RkF54FqupohJYXKTIumb-3" target="RkF54FqupohJYXKTIumb-1">
          <mxGeometry relative="1" as="geometry">
            <mxPoint x="355" y="301.95" as="sourcePoint" />
            <mxPoint x="521" y="204.95" as="targetPoint" />
          </mxGeometry>
        </mxCell>
        <mxCell id="RkF54FqupohJYXKTIumb-7" value="&lt;b&gt;SPAN&lt;/b&gt;" style="edgeStyle=orthogonalEdgeStyle;rounded=0;orthogonalLoop=1;jettySize=auto;html=1;endArrow=none;endFill=0;curved=1;startArrow=none;startFill=0;exitX=0.5;exitY=1;exitDx=0;exitDy=0;exitPerimeter=0;shape=link;" edge="1" parent="1" source="RkF54FqupohJYXKTIumb-2" target="RkF54FqupohJYXKTIumb-1">
          <mxGeometry relative="1" as="geometry">
            <mxPoint x="500" y="269.45" as="sourcePoint" />
            <mxPoint x="553" y="124.5" as="targetPoint" />
          </mxGeometry>
        </mxCell>
        <mxCell id="RkF54FqupohJYXKTIumb-8" value="" style="shape=image;html=1;verticalAlign=top;verticalLabelPosition=bottom;labelBackgroundColor=#ffffff;imageAspect=0;aspect=fixed;image=https://cdn4.iconfinder.com/data/icons/evil-icons-user-interface/64/download-128.png;align=center;" vertex="1" parent="1">
          <mxGeometry x="570" y="89.99999999999999" width="41.3" height="41.3" as="geometry" />
        </mxCell>
        <mxCell id="RkF54FqupohJYXKTIumb-9" value="Internet" style="ellipse;shape=cloud;whiteSpace=wrap;html=1;" vertex="1" parent="1">
          <mxGeometry x="310" y="-70" width="180" height="130" as="geometry" />
        </mxCell>
        <mxCell id="RkF54FqupohJYXKTIumb-10" style="edgeStyle=orthogonalEdgeStyle;rounded=0;orthogonalLoop=1;jettySize=auto;html=1;entryX=0.55;entryY=0.95;entryDx=0;entryDy=0;entryPerimeter=0;endArrow=classic;endFill=1;startArrow=classic;startFill=1;" edge="1" parent="1" source="RkF54FqupohJYXKTIumb-1" target="RkF54FqupohJYXKTIumb-9">
          <mxGeometry relative="1" as="geometry">
            <Array as="points">
              <mxPoint x="408" y="90" />
              <mxPoint x="408" y="90" />
              <mxPoint x="408" y="53" />
            </Array>
          </mxGeometry>
        </mxCell>
        <mxCell id="RkF54FqupohJYXKTIumb-11" value="" style="shape=image;html=1;verticalAlign=top;verticalLabelPosition=bottom;labelBackgroundColor=#ffffff;imageAspect=0;aspect=fixed;image=https://cdn4.iconfinder.com/data/icons/evil-icons-user-interface/64/download-128.png;align=center;" vertex="1" parent="1">
          <mxGeometry x="420" y="89.99999999999999" width="41.3" height="41.3" as="geometry" />
        </mxCell>
      </root>
    </mxGraphModel>
  </diagram>
</mxfile>
